<?xml version="1.0" standalone="no"?>
<!DOCTYPE svg PUBLIC "-//W3C//DTD SVG 20010904//EN"
 "http://www.w3.org/TR/2001/REC-SVG-20010904/DTD/svg10.dtd">
<svg version="1.0" xmlns="http://www.w3.org/2000/svg"
 width="450.000000pt" height="450.000000pt" viewBox="0 0 450.000000 450.000000"
 preserveAspectRatio="xMidYMid meet">

<g transform="translate(0.000000,450.000000) scale(0.100000,-0.100000)"
fill="#000000" stroke="none">
<path d="M2114 4059 c-409 -29 -816 -210 -1114 -496 -182 -174 -319 -371 -416
-597 -159 -370 -190 -790 -88 -1179 68 -256 221 -551 364 -699 43 -44 52 -50
77 -43 75 18 85 81 25 154 -53 65 -115 151 -111 155 2 2 32 19 66 39 l61 35
65 -86 c75 -101 223 -247 319 -315 l66 -48 -59 -103 c-65 -113 -73 -152 -38
-187 31 -31 226 -121 353 -163 347 -115 746 -118 1102 -10 160 48 383 156 404
194 14 26 12 61 -4 79 -7 9 -36 55 -64 103 l-51 87 67 48 c96 68 244 214 319
314 l65 87 64 -37 c35 -20 64 -38 64 -41 -1 -19 -154 -204 -242 -292 -90 -89
-108 -113 -108 -138 0 -41 31 -70 76 -70 33 0 47 10 143 108 128 127 168 176
251 302 212 323 314 716 289 1110 -24 375 -168 740 -405 1031 -71 87 -221 231
-314 300 -355 265 -780 390 -1226 358z m357 -163 c117 -16 194 -34 314 -73 91
-30 225 -88 225 -99 0 -5 -56 -110 -66 -123 -2 -2 -47 16 -100 39 -375 160
-814 161 -1186 0 -50 -21 -95 -37 -99 -34 -4 2 -22 30 -40 61 -39 68 -42 65
107 123 119 47 257 84 364 99 41 6 86 13 100 15 64 9 285 4 381 -8z m-1078
-313 l35 -61 -88 -66 c-100 -75 -246 -223 -314 -320 l-47 -64 -64 36 -64 37
22 37 c43 72 173 222 265 304 81 72 211 169 217 162 1 -2 18 -31 38 -65z
m1836 12 c114 -87 196 -163 275 -255 79 -93 151 -189 145 -194 -2 -2 -32 -19
-66 -39 l-62 -36 -46 65 c-69 97 -218 248 -316 321 l-87 65 37 64 c20 35 38
64 41 64 3 0 38 -25 79 -55z m-1148 -73 l-39 -78 -59 -13 c-129 -29 -299 -104
-416 -183 -80 -54 -225 -194 -288 -278 -90 -120 -180 -314 -209 -454 l-12 -57
-79 -39 -79 -40 0 30 c0 48 39 217 70 301 138 374 433 672 807 815 82 31 254
72 306 73 l37 1 -39 -78z m469 54 c451 -103 827 -437 984 -874 27 -75 66 -251
66 -296 l0 -26 -77 39 -78 39 -22 85 c-88 346 -319 631 -638 790 -88 44 -213
88 -288 102 -35 7 -41 13 -78 86 l-39 79 32 0 c18 0 80 -11 138 -24z m-207
-241 l87 -175 -180 0 -180 0 87 175 c48 96 90 175 93 175 3 0 45 -79 93 -175z
m-433 -157 c-22 -45 -40 -88 -40 -94 0 -7 -9 -15 -20 -19 -43 -14 -179 -112
-241 -174 -62 -62 -160 -198 -174 -241 -4 -11 -12 -20 -19 -20 -6 0 -49 -18
-95 -40 l-83 -40 7 27 c3 16 20 58 36 96 111 253 318 454 574 558 39 16 75 29
82 29 7 0 -4 -33 -27 -82z m735 53 c264 -106 484 -327 589 -593 14 -36 26 -71
26 -77 0 -6 -37 8 -82 29 -45 22 -88 40 -94 40 -7 0 -15 9 -19 20 -13 42 -108
173 -172 238 -63 65 -199 163 -243 177 -11 4 -20 12 -20 18 0 7 -17 46 -37 87
-21 41 -39 78 -41 83 -7 13 19 7 93 -22z m-1809 -252 c29 -16 56 -34 58 -38 3
-4 -13 -49 -34 -99 -161 -372 -160 -811 0 -1186 23 -53 41 -98 39 -100 -13
-10 -118 -66 -123 -66 -11 0 -59 111 -99 226 -58 165 -79 287 -85 479 -6 231
14 371 83 587 28 87 90 228 101 228 3 0 31 -14 60 -31z m2925 -35 c67 -148
119 -328 140 -489 17 -130 6 -414 -20 -533 -33 -149 -135 -432 -156 -432 -9 0
-115 61 -120 71 -3 4 5 30 18 56 36 70 84 217 109 330 30 134 33 453 5 583
-27 126 -55 214 -98 315 -23 52 -35 93 -30 98 13 13 104 66 114 66 5 1 22 -29
38 -65z m-1591 -18 l0 -74 -66 -16 c-67 -17 -146 -52 -197 -89 l-29 -20 -55
55 -55 55 56 37 c72 48 154 85 236 107 111 30 110 31 110 -55z m259 58 c110
-27 291 -120 291 -149 0 -6 -22 -33 -50 -60 -46 -45 -51 -47 -67 -33 -32 28
-139 77 -207 94 l-66 16 0 74 c0 85 -4 83 99 58z m-676 -391 c-37 -51 -72
-130 -89 -197 l-16 -66 -74 0 c-85 0 -83 -3 -58 99 21 85 55 160 106 239 l41
63 55 -54 55 -55 -20 -29z m1124 79 c43 -63 87 -163 107 -243 25 -103 27 -99
-58 -99 l-74 0 -16 66 c-17 67 -52 146 -89 197 l-20 29 49 49 c26 27 53 49 59
49 5 0 24 -21 42 -48z m-435 -14 c99 -49 167 -117 215 -215 37 -76 38 -79 38
-193 0 -114 -1 -118 -37 -191 -48 -98 -119 -169 -217 -217 -73 -36 -77 -37
-190 -37 -113 0 -118 1 -192 36 -98 47 -170 119 -218 219 -35 73 -36 78 -36
191 0 113 1 116 38 191 58 119 145 195 272 241 38 13 74 17 151 15 93 -3 106
-6 176 -40z m1068 -408 c0 -3 -79 -45 -175 -93 l-175 -87 0 180 0 180 175 -87
c96 -48 175 -90 175 -93z m-2170 -5 l0 -175 -175 87 c-96 48 -175 90 -175 93
0 7 322 169 338 169 9 1 12 -40 12 -174z m324 -141 c17 -67 52 -146 89 -197
l20 -29 -49 -49 c-26 -27 -53 -49 -59 -49 -13 0 -78 101 -108 170 -24 55 -57
172 -57 203 0 14 11 17 74 17 l74 0 16 -66z m1331 19 c-15 -104 -94 -282 -145
-328 -21 -19 -21 -19 -72 32 l-51 51 22 30 c34 49 80 152 91 209 l11 53 76 0
75 0 -7 -47z m-1930 -120 c51 -272 253 -579 490 -743 129 -88 318 -171 448
-195 35 -7 41 -13 78 -86 l39 -79 -30 0 c-17 0 -74 9 -127 21 -514 111 -922
516 -1039 1029 -13 58 -24 120 -24 138 l0 32 79 -39 c73 -37 79 -43 86 -78z
m2520 -10 c-85 -461 -432 -865 -880 -1026 -80 -28 -249 -67 -295 -67 l-30 0
39 78 39 78 59 13 c288 65 563 253 734 503 79 115 161 308 184 431 7 35 13 41
84 76 91 46 91 46 66 -86z m-2171 -123 c6 -1 34 -40 61 -87 61 -106 173 -222
279 -292 42 -27 86 -53 96 -56 11 -4 20 -12 20 -19 0 -6 18 -49 40 -95 l40
-83 -27 7 c-57 14 -170 69 -253 123 -166 107 -321 293 -396 475 -18 45 -34 87
-34 94 0 7 33 -4 82 -27 45 -22 87 -40 92 -40z m1813 -24 c-85 -209 -252 -398
-452 -513 -67 -39 -192 -93 -214 -93 -6 0 8 37 29 82 22 45 40 88 40 94 0 7 9
15 20 19 44 14 180 112 243 177 64 65 159 196 172 238 4 11 12 20 19 20 6 0
48 17 91 39 44 21 81 34 83 30 2 -5 -12 -46 -31 -93z m-1317 -96 c47 -33 151
-79 207 -90 l53 -11 0 -76 0 -75 -47 7 c-104 15 -282 94 -328 145 -19 20 -18
21 30 70 27 28 51 50 53 50 2 0 16 -9 32 -20z m762 -27 c26 -26 48 -52 48 -58
0 -29 -181 -122 -291 -149 -103 -25 -99 -27 -99 58 l0 74 66 16 c65 16 159 59
199 90 11 8 22 16 25 16 2 0 26 -21 52 -47z m-329 -558 c-48 -96 -90 -175 -93
-175 -7 0 -170 327 -170 340 0 6 66 10 175 10 l175 0 -87 -175z m-698 -300
c354 -162 811 -167 1175 -14 52 22 101 41 109 42 12 2 80 -95 81 -116 0 -5
-33 -23 -72 -41 -371 -168 -809 -191 -1207 -64 -99 31 -241 92 -241 103 0 12
68 125 75 125 1 0 37 -16 80 -35z"/>
<path d="M2140 2533 c-63 -23 -151 -113 -173 -177 -40 -117 -14 -231 72 -317
123 -122 299 -122 422 0 86 86 112 200 72 317 -23 67 -110 154 -177 177 -61
21 -156 21 -216 0z m197 -161 c43 -30 66 -85 60 -138 -11 -104 -112 -161 -211
-120 -108 45 -110 223 -2 272 42 19 116 12 153 -14z"/>
<path d="M1090 960 c-48 -48 -2 -139 63 -126 62 12 85 70 46 120 -26 33 -79
36 -109 6z"/>
</g>
</svg>
